<svg width="1232" height="1232" viewBox="0 0 1232 1232" fill="none" xmlns="http://www.w3.org/2000/svg">
<path d="M923.835 923.835C984.741 862.929 1026.22 785.331 1043.02 700.852C1059.83 616.373 1051.2 528.809 1018.24 449.231C985.278 369.654 929.458 301.638 857.841 253.785C786.223 205.932 702.024 180.39 615.89 180.39C529.756 180.39 445.557 205.932 373.939 253.785C302.322 301.638 246.502 369.654 213.54 449.231C180.579 528.809 171.954 616.373 188.758 700.852C205.562 785.331 247.039 862.929 307.945 923.835L615.89 615.89L923.835 923.835Z" fill="#F3E582"/>
<path d="M304.96 415.132C304.96 409.508 306.86 405.176 310.66 402.136C314.46 398.944 319.704 397.348 326.392 397.348L381.568 529.816L377.236 540.532L378.832 541.216L437.2 397.348C443.888 397.348 449.132 398.944 452.932 402.136C456.884 405.328 458.86 409.736 458.86 415.36V561.052C444.724 561.052 437.656 555.2 437.656 543.496V447.508L443.584 431.776L441.76 431.32L390.916 554.896C390.156 556.72 388.94 558.164 387.268 559.228C385.596 560.444 383.848 561.052 382.024 561.052C380.048 561.052 378.224 560.52 376.552 559.456C374.88 558.392 373.664 556.872 372.904 554.896L322.06 431.092L320.236 431.776L326.164 447.28V543.496C326.164 549.272 324.34 553.68 320.692 556.72C317.196 559.608 311.952 561.052 304.96 561.052V415.132ZM540.354 460.504C531.842 460.504 524.774 463.088 519.15 468.256C513.526 473.272 510.714 479.428 510.714 486.724V546.46C510.714 551.476 509.042 555.2 505.698 557.632C502.506 559.912 497.566 561.052 490.878 561.052V459.82C490.878 448.572 497.262 442.948 510.03 442.948V456.856C507.598 459.44 505.926 461.72 505.014 463.696L505.926 464.608C515.654 450.168 527.814 442.948 542.406 442.948C547.878 442.948 552.058 444.316 554.946 447.052C557.834 449.636 559.278 452.828 559.278 456.628C559.278 459.364 558.594 461.796 557.226 463.924C552.97 461.644 547.346 460.504 540.354 460.504ZM618.638 561.052C609.366 561.052 601.082 559.38 593.786 556.036C586.49 552.692 580.79 547.98 576.686 541.9C572.734 535.82 570.758 528.904 570.758 521.152V484.216C570.758 476.16 572.734 469.016 576.686 462.784C580.79 456.552 586.414 451.688 593.558 448.192C600.702 444.696 608.91 442.948 618.182 442.948C626.846 442.948 634.522 444.24 641.21 446.824C648.05 449.256 653.37 452.752 657.17 457.312C660.97 461.872 662.87 467.04 662.87 472.816C662.87 476.616 661.35 479.732 658.31 482.164C655.422 484.444 651.622 485.432 646.91 485.128C646.91 477.832 644.25 471.904 638.93 467.344C633.762 462.784 626.998 460.504 618.638 460.504C610.278 460.504 603.514 462.784 598.346 467.344C593.178 471.752 590.594 477.528 590.594 484.672V520.24C590.594 527.08 593.254 532.704 598.574 537.112C603.894 541.368 610.734 543.496 619.094 543.496C627.454 543.496 634.218 541.216 639.386 536.656C644.706 532.096 647.366 526.244 647.366 519.1C652.23 518.796 656.106 519.784 658.994 522.064C662.034 524.192 663.554 527.232 663.554 531.184C663.554 536.96 661.654 542.128 657.854 546.688C654.054 551.248 648.734 554.82 641.894 557.404C635.054 559.836 627.302 561.052 618.638 561.052ZM753.322 561.052C740.554 561.052 729.154 558.696 719.122 553.984C709.09 549.12 701.262 542.432 695.638 533.92C690.166 525.256 687.43 515.452 687.43 504.508V453.436C687.43 442.492 690.166 432.764 695.638 424.252C701.262 415.74 709.014 409.128 718.894 404.416C728.774 399.704 740.098 397.348 752.866 397.348C765.634 397.348 776.958 399.4 786.838 403.504C796.718 407.456 804.394 413.004 809.866 420.148C815.49 427.292 818.302 435.5 818.302 444.772C818.302 449.332 816.782 452.904 813.742 455.488C810.702 458.072 806.674 459.364 801.658 459.364C800.594 459.364 798.998 459.212 796.87 458.908C797.174 457.084 797.326 454.196 797.326 450.244C797.326 443.708 795.426 437.856 791.626 432.688C787.978 427.52 782.734 423.492 775.894 420.604C769.206 417.716 761.53 416.272 752.866 416.272C744.354 416.272 736.754 417.868 730.066 421.06C723.378 424.1 718.134 428.508 714.334 434.284C710.686 439.908 708.862 446.292 708.862 453.436V504.508C708.862 511.804 710.686 518.34 714.334 524.116C718.134 529.74 723.378 534.148 730.066 537.34C736.906 540.532 744.658 542.128 753.322 542.128C762.138 542.128 769.966 540.684 776.806 537.796C783.646 534.908 788.966 530.956 792.766 525.94C796.566 520.772 798.466 514.844 798.466 508.156C798.466 505.724 798.314 502.836 798.01 499.492C800.138 499.188 801.658 499.036 802.57 499.036C807.586 499.036 811.614 500.48 814.654 503.368C817.846 506.256 819.442 510.132 819.442 514.996C819.442 523.964 816.63 531.944 811.006 538.936C805.382 545.928 797.554 551.4 787.522 555.352C777.642 559.152 766.242 561.052 753.322 561.052ZM883.1 561.052C873.828 561.052 865.392 559.304 857.792 555.808C850.344 552.312 844.492 547.6 840.236 541.672C836.132 535.592 834.08 528.828 834.08 521.38V483.988C834.08 476.388 836.132 469.472 840.236 463.24C844.492 457.008 850.344 452.068 857.792 448.42C865.24 444.772 873.676 442.948 883.1 442.948C892.524 442.948 900.96 444.772 908.408 448.42C916.008 452.068 921.86 457.008 925.964 463.24C930.22 469.472 932.348 476.388 932.348 483.988V521.38C932.348 528.828 930.22 535.592 925.964 541.672C921.708 547.6 915.856 552.312 908.408 555.808C900.96 559.304 892.524 561.052 883.1 561.052ZM883.1 543.952C892.22 543.952 899.44 541.824 904.76 537.568C910.232 533.16 912.968 527.46 912.968 520.468V484.672C912.968 477.376 910.232 471.448 904.76 466.888C899.44 462.328 892.22 460.048 883.1 460.048C874.132 460.048 866.912 462.328 861.44 466.888C855.968 471.448 853.232 477.376 853.232 484.672V520.468C853.232 527.46 855.892 533.16 861.212 537.568C866.684 541.824 873.98 543.952 883.1 543.952Z" fill="#020517"/>
</svg>
